<svg width="17" height="27" viewBox="0 0 17 27" fill="none" xmlns="http://www.w3.org/2000/svg">
<path d="M11.3571 14.5662H13.2857V23.2315H7.11907C4.64281 23.2315 3.7143 22.2954 3.7143 19.7991V14.5662H5.64281V19.847C5.64281 20.9512 6.07141 21.4073 7.07142 21.4073H11.3571V14.5662ZM1.85709 2.08438H15.1429V25.1278H1.85709V2.08438ZM0 27H17V0.212122H0V27ZM10.4048 7.77326H5.64281V5.80492H10.4048C11.1189 5.80492 11.4523 6.18905 11.4523 6.76507C11.4523 7.34118 11.1666 7.77326 10.4048 7.77326ZM13.381 6.54903C13.381 5.10885 12.6905 3.9807 10.6666 3.9807H3.7143V12.6459H5.64281V9.59747H10.0952C11.0953 9.59747 11.3571 9.88553 11.3571 10.8937V12.6459H13.2857V10.5816C13.2857 9.55198 12.9234 8.94794 12.1186 8.74247C12.9558 8.45715 13.381 7.64103 13.381 6.54903Z" fill="white"/>
</svg>
