<svg width="183" height="28" viewBox="0 0 183 28" fill="none" xmlns="http://www.w3.org/2000/svg">
<path d="M20.84 28V9.6H0.6V-1.90735e-06H53.8V9.6H33.48V28H20.84ZM57.0063 28V-1.90735e-06H69.6463V28H57.0063ZM111.666 9.6H85.5056V12.8H111.666C112.786 12.8 113.426 12.2 113.426 11.2C113.426 10.2 112.786 9.6 111.666 9.6ZM85.5056 28H72.8656V-1.90735e-06H114.866C121.866 -1.90735e-06 126.066 5.6 126.066 11.2C126.066 16.8 121.866 22.4 114.866 22.4H85.5056V28ZM137.211 16C131.771 16 128.491 12.8 128.491 8.2C128.491 3.6 131.771 -1.90735e-06 137.211 -1.90735e-06H180.491V9.6H142.451C141.491 9.6 141.131 10.32 141.131 10.8C141.131 11.28 141.491 12 142.451 12H173.371C178.811 12 182.091 15.2 182.091 19.8C182.091 24.4 178.811 28 173.371 28H130.091V18.4H168.131C169.091 18.4 169.451 17.68 169.451 17.2C169.451 16.72 169.091 16 168.131 16H137.211Z" fill="white"/>
</svg>
