<svg width="111" height="24" viewBox="0 0 111 24" fill="none" xmlns="http://www.w3.org/2000/svg">
<path d="M0.046875 23.0938V1.20312L0.859375 1.26562L1.45312 1.29688L2 1.26562L2.85938 1.20312V23.0938L2.28125 23.0469C2.09375 23.0469 1.96354 23.0365 1.89062 23.0156L1.45312 23L0.96875 23.0156L0.5625 23.0469L0.046875 23.0938ZM11.5625 1.20312V21.5C11.7708 21.5 12.6302 21.4792 14.1406 21.4375C15.6615 21.3958 16.7344 21.375 17.3594 21.375C17.7344 21.375 18.1979 21.3385 18.75 21.2656L20.4062 21.0781L20.3438 21.6562L20.3125 22.0469L20.3438 22.4375L20.4062 23H8.75V1.20312L9.5625 1.26562L10.1562 1.29688L10.7344 1.26562L11.5625 1.20312ZM52.1719 5.04688H51.8125C51.3646 4.51562 50.8698 4.0625 50.3281 3.6875C49.7865 3.3125 49.224 3.00521 48.6406 2.76562C48.0677 2.51562 47.4167 2.31771 46.6875 2.17188C45.9688 2.01562 45.2812 1.9375 44.625 1.9375C43.2708 1.9375 42.0208 2.15625 40.875 2.59375C39.7396 3.03125 38.7656 3.67708 37.9531 4.53125C37.1406 5.38542 36.5104 6.44271 36.0625 7.70312C35.625 8.96354 35.4062 10.3906 35.4062 11.9844C35.4062 14.099 35.7656 15.9271 36.4844 17.4688C37.2031 19 38.2865 20.1875 39.7344 21.0312C40.4531 21.4375 41.2448 21.7448 42.1094 21.9531C42.9844 22.1615 43.9375 22.2656 44.9688 22.2656C46.875 22.2656 48.5417 21.901 49.9688 21.1719V12.9531L50.7812 13.0156L51.375 13.0469L51.9219 13.0156L52.7812 12.9531V22.0156C51.375 22.4844 49.9479 22.8438 48.5 23.0938C47.0521 23.3542 45.5781 23.4844 44.0781 23.4844C41.4531 23.4844 39.2552 23.0052 37.4844 22.0469C35.724 21.0781 34.4115 19.7344 33.5469 18.0156C32.6927 16.2969 32.2656 14.3438 32.2656 12.1562C32.2656 10.3229 32.5729 8.69271 33.1875 7.26562C33.8021 5.83854 34.6719 4.64062 35.7969 3.67188C36.9219 2.70312 38.2552 1.96875 39.7969 1.46875C40.5469 1.22917 41.3333 1.04688 42.1562 0.921875C42.9896 0.796875 43.8542 0.734375 44.75 0.734375C46.1979 0.734375 47.4844 0.848958 48.6094 1.07812C49.7344 1.29688 50.6406 1.54688 51.3281 1.82812C51.974 2.07812 52.5 2.32812 52.9062 2.57812C52.8125 2.86979 52.6719 3.33854 52.4844 3.98438C52.3802 4.33854 52.276 4.69271 52.1719 5.04688ZM70.2656 7.79688V23.0938L69.7344 23.0469C69.5781 23.0469 69.4635 23.0365 69.3906 23.0156L68.9844 23H68.5938L68.25 23.0312L67.7031 23.0938V20.3438C67.3594 21 66.9375 21.5469 66.4375 21.9844C65.9479 22.4219 65.375 22.7604 64.7188 23C64.0625 23.2396 63.3594 23.3594 62.6094 23.3594C60.8281 23.3594 59.5 22.8698 58.625 21.8906C57.7604 20.9115 57.3281 19.349 57.3281 17.2031V7.79688L58.0469 7.85938L58.6094 7.89062L59.125 7.85938L59.8906 7.79688V16.4375C59.8906 17.5833 60.0156 18.5521 60.2656 19.3438C60.5156 20.1354 60.9271 20.7396 61.5 21.1562C62.0729 21.5729 62.8281 21.7812 63.7656 21.7812C64.776 21.7812 65.5677 21.5312 66.1406 21.0312C66.7135 20.5312 67.1146 19.8854 67.3438 19.0938C67.5833 18.2917 67.7031 17.4688 67.7031 16.625V7.79688L68.4375 7.85938L68.9844 7.89062L69.5 7.85938L70.2656 7.79688ZM74.9531 19.9844H75.2031C75.6094 20.6615 76.151 21.2292 76.8281 21.6875C77.5052 22.1354 78.1927 22.3594 78.8906 22.3594C79.401 22.3594 79.8958 22.2344 80.375 21.9844C80.8646 21.7344 81.2604 21.3854 81.5625 20.9375C81.875 20.4896 82.0312 19.9948 82.0312 19.4531C82.0312 18.5052 81.7448 17.8542 81.1719 17.5C80.599 17.1458 79.6615 16.776 78.3594 16.3906C77.0677 16.0052 76.0938 15.5469 75.4375 15.0156C74.7917 14.474 74.4688 13.5833 74.4688 12.3438C74.4688 10.875 74.9583 9.71875 75.9375 8.875C76.9271 8.03125 78.1771 7.60938 79.6875 7.60938C80.4375 7.60938 81.151 7.69792 81.8281 7.875C82.5052 8.04167 83 8.22917 83.3125 8.4375C83.0312 9.05208 82.7708 9.8125 82.5312 10.7188H82.25C82.125 10.375 81.9115 10.0365 81.6094 9.70312C81.3281 9.35938 81.0052 9.08854 80.6406 8.89062C80.2865 8.69271 79.9167 8.59375 79.5312 8.59375C78.7083 8.59375 78.0156 8.82812 77.4531 9.29688C76.901 9.76562 76.625 10.4167 76.625 11.25C76.625 12.1562 76.9115 12.7969 77.4844 13.1719C78.0677 13.5365 79 13.9271 80.2812 14.3438C81.5625 14.75 82.5312 15.224 83.1875 15.7656C83.8438 16.3073 84.1719 17.151 84.1719 18.2969C84.1719 19.3698 83.8854 20.2917 83.3125 21.0625C82.75 21.8333 82.0104 22.4115 81.0938 22.7969C80.1771 23.1719 79.2396 23.3594 78.2812 23.3594C76.7917 23.3594 75.4583 23.0156 74.2812 22.3281C74.6562 21.1719 74.8802 20.3906 74.9531 19.9844ZM87.7031 4.625L90.2656 3.64062V7.79688H93.6562L93.5938 8.4375C93.5938 8.625 93.6146 8.81771 93.6562 9.01562H90.2656V17.0469V18.2031C90.2656 19.4115 90.4219 20.3854 90.7344 21.125C91.0469 21.8646 91.6823 22.2344 92.6406 22.2344C92.7552 22.2344 92.9167 22.2188 93.125 22.1875C93.3438 22.1562 93.6615 22.099 94.0781 22.0156V22.7812C92.9844 23.1667 92.0885 23.3594 91.3906 23.3594C90.8073 23.3594 90.2917 23.2865 89.8438 23.1406C89.4062 22.9948 89.026 22.7344 88.7031 22.3594C88.3802 21.974 88.1302 21.4375 87.9531 20.75C87.7865 20.0625 87.7031 19.2552 87.7031 18.3281V9.01562H85.7188C85.7708 8.85938 85.7969 8.65625 85.7969 8.40625C85.7969 8.10417 85.7708 7.90104 85.7188 7.79688H87.7031V4.625ZM95.4375 15.3125C95.4375 14.1667 95.6354 13.1302 96.0312 12.2031C96.4375 11.276 97.0156 10.4635 97.7656 9.76562C98.5156 9.06771 99.375 8.53646 100.344 8.17188C101.323 7.79688 102.396 7.60938 103.562 7.60938C105.021 7.60938 106.307 7.92708 107.422 8.5625C108.547 9.1875 109.422 10.0938 110.047 11.2812C110.672 12.4688 110.984 13.849 110.984 15.4219C110.984 16.4323 110.812 17.4167 110.469 18.375C110.125 19.3333 109.609 20.1927 108.922 20.9531C108.245 21.7031 107.396 22.2917 106.375 22.7188C105.354 23.1458 104.224 23.3594 102.984 23.3594C101.609 23.3594 100.339 23.0417 99.1719 22.4062C98.0156 21.7604 97.1042 20.8229 96.4375 19.5938C95.7708 18.3646 95.4375 16.9375 95.4375 15.3125ZM103.531 8.59375C102.26 8.59375 101.229 8.94271 100.438 9.64062C99.6562 10.3281 99.0938 11.224 98.75 12.3281C98.4167 13.4323 98.25 14.5885 98.25 15.7969C98.25 16.974 98.4167 18.0469 98.75 19.0156C99.0938 19.974 99.6406 20.7708 100.391 21.4062C101.141 22.0417 102.089 22.3594 103.234 22.3594C104.359 22.3594 105.292 21.974 106.031 21.2031C106.781 20.4323 107.323 19.4896 107.656 18.375C108 17.2604 108.172 16.2188 108.172 15.25C108.172 14.4583 108.094 13.6771 107.938 12.9062C107.781 12.125 107.521 11.4167 107.156 10.7812C106.802 10.1458 106.323 9.625 105.719 9.21875C105.115 8.80208 104.385 8.59375 103.531 8.59375Z" fill="white"/>
</svg>
