<svg width="83" height="60" viewBox="0 0 83 60" fill="none" xmlns="http://www.w3.org/2000/svg">
<path d="M19.6474 1.52384C19.9525 0.791783 20.6679 0.314961 21.461 0.314961C22.8702 0.314961 23.8212 1.75465 23.2682 3.0508L4.26497 47.5906C3.9879 48.24 3.35 48.6614 2.64395 48.6614C1.38625 48.6614 0.533329 47.3819 1.0172 46.221L19.6474 1.52384Z" fill="white"/>
<path d="M22.4683 24.432C23.1319 22.8635 25.3631 22.8875 25.9928 24.4699C26.1782 24.9357 26.1725 25.4557 25.977 25.9173L16.8341 47.5025C16.5365 48.205 15.8475 48.6614 15.0846 48.6614C13.7243 48.6614 12.8047 47.2739 13.3347 46.0211L22.4683 24.432Z" fill="white"/>
<path d="M33.5754 35.7706C34.2389 34.2021 36.4701 34.2261 37.0998 35.8085C37.2852 36.2742 37.2795 36.7943 37.084 37.2559L27.9411 58.8411C27.6435 59.5436 26.9545 60 26.1916 60C24.8313 60 23.9117 58.6124 24.4417 57.3597L33.5754 35.7706Z" fill="white"/>
<path d="M44.3947 39.6335C44.9306 38.4037 46.5582 38.1387 47.4565 39.1351C47.9328 39.6635 48.0629 40.4186 47.7909 41.076L44.5867 48.8189C42.6035 48.7432 41.3176 46.6961 42.1103 44.8766L44.3947 39.6335Z" fill="white"/>
<path d="M2.06273 46.8504C2.06273 45.8502 2.87355 45.0394 3.87375 45.0394H12.9454C13.9456 45.0394 14.7565 45.8502 14.7565 46.8504C14.7565 47.8506 13.9456 48.6614 12.9454 48.6614H3.87375C2.87355 48.6614 2.06273 47.8506 2.06273 46.8504Z" fill="white"/>
<path d="M25.8635 58.1102C25.8635 57.0665 26.7095 56.2205 27.7532 56.2205H37.2878C37.2878 58.3078 35.5957 60 33.5083 60H27.7532C26.7095 60 25.8635 59.1539 25.8635 58.1102Z" fill="white"/>
<path d="M35.0664 58.1102C35.0664 57.0665 35.9125 56.2205 36.9562 56.2205H37.2878C37.657 55.3655 38.8628 55.3475 39.2574 56.191L40.0654 57.9183C40.2181 58.2447 40.2449 58.616 40.1407 58.9609C39.9542 59.5779 39.3856 60 38.741 60H36.9562C35.9125 60 35.0664 59.1539 35.0664 58.1102Z" fill="white"/>
<path d="M55.059 58.0315C55.059 57.0313 55.8699 56.2205 56.8701 56.2205H65.9417C66.9419 56.2205 67.7528 57.0313 67.7528 58.0315C67.7528 59.0317 66.9419 59.8425 65.9417 59.8425H56.8701C55.8699 59.8425 55.059 59.0317 55.059 58.0315Z" fill="white"/>
<path d="M21.4749 2.75058C20.9955 1.59022 21.8484 0.314961 23.1039 0.314961C23.8144 0.314961 24.4553 0.741476 24.7297 1.39678L44.5867 48.8189C43.8214 50.6301 41.2511 50.6198 40.5004 48.8026L21.4749 2.75058Z" fill="white"/>
<path d="M38.5572 24.0945H42.3653L56.6817 57.007C57.2641 58.3457 56.2829 59.8425 54.823 59.8425C54.005 59.8425 53.2672 59.3509 52.9523 58.596L38.5572 24.0945Z" fill="white"/>
<path d="M55.059 33.8583H58.8672L68.8302 57.504C69.298 58.6144 68.4828 59.8425 67.2779 59.8425C66.6035 59.8425 65.9941 59.4403 65.7291 58.8201L55.059 33.8583Z" fill="white"/>
<path d="M48.3948 0H64.8967L59.3432 3.77953H55.2414C52.4615 3.77953 49.8762 2.35237 48.3948 0Z" fill="white"/>
<path d="M48.3948 0C49.9791 2.3586 50.2684 5.35671 49.1642 7.97468L42.3653 24.0945H38.5572L48.3948 0Z" fill="white"/>
<path d="M79.3136 11.8678C79.6371 11.6264 80.0298 11.4961 80.4334 11.4961C82.2277 11.4961 82.9947 13.776 81.5651 14.8605L59.5823 31.5373C58.8705 32.0773 58.5827 33.0113 58.8672 33.8583H55.059C56.1955 30.4744 58.3373 27.5178 61.1984 25.3832L79.3136 11.8678Z" fill="white"/>
<path d="M59.3432 3.77953L64.8967 0L52.3223 29.536C51.7089 30.9769 49.6496 30.9268 49.1069 29.4578C48.9552 29.0472 48.9648 28.5943 49.1337 28.1905L59.3432 3.77953Z" fill="white"/>
</svg>
