<svg width="220" height="28" viewBox="0 0 220 28" fill="none" xmlns="http://www.w3.org/2000/svg">
<path d="M14.539 1.8V3.06H14.431C14.191 3.012 13.927 2.976 13.639 2.952C13.351 2.928 13.003 2.916 12.595 2.916C12.187 2.892 11.695 2.88 11.119 2.88H2.87502L3.45102 2.304V9.9L3.01902 9.468H11.731V10.548H3.01902L3.45102 10.116V26.496L2.87502 25.92H12.091C12.763 25.92 13.315 25.92 13.747 25.92C14.179 25.92 14.539 25.908 14.827 25.884C15.115 25.836 15.415 25.764 15.727 25.668H15.871V27H0.211016V26.856C0.283016 26.568 0.331016 26.28 0.355016 25.992C0.379016 25.68 0.391016 25.308 0.391016 24.876C0.391016 24.444 0.391016 23.892 0.391016 23.22V5.58C0.391016 4.908 0.391016 4.356 0.391016 3.924C0.391016 3.492 0.379016 3.132 0.355016 2.844C0.331016 2.532 0.283016 2.232 0.211016 1.944V1.8H14.539ZM20.1162 1.8V1.944V2.016C20.1162 2.136 20.1282 2.316 20.1522 2.556C20.2002 2.772 20.2962 3.132 20.4402 3.636C20.5842 4.14 20.7882 4.788 21.0522 5.58L28.0362 26.244H27.3882L35.0202 5.58C35.3322 4.764 35.5602 4.104 35.7042 3.6C35.8482 3.096 35.9322 2.736 35.9562 2.52C35.9802 2.304 35.9922 2.136 35.9922 2.016V1.944V1.8H37.8282V1.944C37.7802 2.04 37.6962 2.196 37.5762 2.412C37.4802 2.604 37.3242 2.964 37.1082 3.492C36.8922 4.02 36.6162 4.728 36.2802 5.616L28.2882 27C27.8082 27 27.3282 27.06 26.8482 27.18C26.3682 27.3 25.9242 27.492 25.5162 27.756L17.9922 5.58C17.7042 4.716 17.4522 4.02 17.2362 3.492C17.0442 2.964 16.9002 2.604 16.8042 2.412C16.7082 2.196 16.6362 2.04 16.5882 1.944V1.8H20.1162ZM55.039 1.8V3.06H54.931C54.691 3.012 54.427 2.976 54.139 2.952C53.851 2.928 53.503 2.916 53.095 2.916C52.687 2.892 52.195 2.88 51.619 2.88H43.375L43.951 2.304V9.9L43.519 9.468H52.231V10.548H43.519L43.951 10.116V26.496L43.375 25.92H52.591C53.263 25.92 53.815 25.92 54.247 25.92C54.679 25.92 55.039 25.908 55.327 25.884C55.615 25.836 55.915 25.764 56.227 25.668H56.371V27H40.711V26.856C40.783 26.568 40.831 26.28 40.855 25.992C40.879 25.68 40.891 25.308 40.891 24.876C40.891 24.444 40.891 23.892 40.891 23.22V5.58C40.891 4.908 40.891 4.356 40.891 3.924C40.891 3.492 40.879 3.132 40.855 2.844C40.831 2.532 40.783 2.232 40.711 1.944V1.8H55.039ZM61.0122 1.62L78.8322 23.004H77.7882V5.58C77.7882 4.908 77.7882 4.356 77.7882 3.924C77.7882 3.492 77.7642 3.132 77.7162 2.844C77.6922 2.556 77.6322 2.256 77.5362 1.944V1.8H79.0482V1.944C79.0002 2.232 78.9522 2.532 78.9042 2.844C78.8802 3.132 78.8682 3.492 78.8682 3.924C78.8682 4.356 78.8682 4.908 78.8682 5.58V23.76C78.8682 24.312 78.8682 24.792 78.8682 25.2C78.8682 25.584 78.8802 25.932 78.9042 26.244C78.9522 26.532 79.0002 26.844 79.0482 27.18H78.3642L60.5442 5.796H61.5882V23.22C61.5882 23.892 61.5882 24.444 61.5882 24.876C61.5882 25.308 61.6002 25.668 61.6242 25.956C61.6722 26.244 61.7442 26.544 61.8402 26.856V27H60.3282V26.856C60.4002 26.568 60.4482 26.28 60.4722 25.992C60.4962 25.68 60.5082 25.308 60.5082 24.876C60.5082 24.444 60.5082 23.892 60.5082 23.22V5.04C60.5082 4.488 60.5082 4.02 60.5082 3.636C60.5082 3.228 60.4842 2.88 60.4362 2.592C60.4122 2.28 60.3762 1.956 60.3282 1.62H61.0122ZM106.839 8.64H106.191C105.855 7.248 105.255 6.06 104.391 5.076C103.527 4.068 102.495 3.312 101.295 2.808C100.095 2.28 98.8228 2.016 97.4788 2.016C95.6788 2.016 93.9508 2.472 92.2948 3.384C90.6628 4.296 89.3308 5.676 88.2988 7.524C87.2908 9.372 86.7868 11.616 86.7868 14.256C86.7868 16.968 87.2668 19.248 88.2268 21.096C89.2108 22.92 90.4828 24.276 92.0428 25.164C93.6268 26.052 95.3068 26.496 97.0828 26.496C98.4748 26.496 99.7948 26.232 101.043 25.704C102.315 25.176 103.407 24.42 104.319 23.436C105.231 22.428 105.855 21.24 106.191 19.872H106.839V23.436C105.567 24.708 104.067 25.716 102.339 26.46C100.611 27.204 98.7628 27.576 96.7948 27.576C94.3708 27.576 92.1388 26.988 90.0988 25.812C88.0828 24.612 86.4868 22.992 85.3108 20.952C84.1348 18.912 83.5468 16.68 83.5468 14.256C83.5468 11.832 84.1348 9.6 85.3108 7.56C86.4868 5.52 88.0828 3.912 90.0988 2.736C92.1388 1.536 94.3708 0.935999 96.7948 0.935999C98.7628 0.935999 100.611 1.308 102.339 2.052C104.067 2.796 105.567 3.804 106.839 5.076V8.64ZM123.023 27.576C120.599 27.576 118.367 26.988 116.327 25.812C114.287 24.612 112.667 22.992 111.467 20.952C110.291 18.912 109.703 16.68 109.703 14.256C109.703 11.832 110.291 9.6 111.467 7.56C112.667 5.52 114.287 3.912 116.327 2.736C118.367 1.536 120.599 0.935999 123.023 0.935999C125.447 0.935999 127.679 1.536 129.719 2.736C131.759 3.912 133.367 5.52 134.543 7.56C135.743 9.6 136.343 11.832 136.343 14.256C136.343 16.68 135.743 18.912 134.543 20.952C133.367 22.992 131.759 24.612 129.719 25.812C127.679 26.988 125.447 27.576 123.023 27.576ZM122.555 26.496C124.547 26.496 126.347 25.956 127.955 24.876C129.563 23.772 130.823 22.296 131.735 20.448C132.647 18.576 133.103 16.512 133.103 14.256C133.103 12 132.683 9.936 131.843 8.064C131.027 6.192 129.875 4.716 128.387 3.636C126.923 2.556 125.267 2.016 123.419 2.016C121.427 2.016 119.627 2.556 118.019 3.636C116.435 4.716 115.187 6.192 114.275 8.064C113.387 9.936 112.943 12 112.943 14.256C112.943 16.512 113.351 18.576 114.167 20.448C115.007 22.296 116.159 23.772 117.623 24.876C119.087 25.956 120.731 26.496 122.555 26.496ZM153.544 19.296V20.376H140.584V19.296H153.544ZM146.776 1.8C147.256 1.8 147.736 1.74 148.216 1.62C148.696 1.5 149.14 1.308 149.548 1.044L157.396 23.22C157.708 24.084 157.96 24.78 158.152 25.308C158.368 25.836 158.524 26.208 158.62 26.424C158.716 26.616 158.788 26.76 158.836 26.856V27H155.272V26.856V26.82C155.272 26.724 155.26 26.568 155.236 26.352C155.212 26.112 155.128 25.74 154.984 25.236C154.84 24.732 154.624 24.06 154.336 23.22L147.1 2.556H147.676L139.684 23.184C139.372 24.024 139.132 24.696 138.964 25.2C138.82 25.704 138.736 26.064 138.712 26.28C138.688 26.496 138.688 26.664 138.712 26.784V26.856V27H136.876V26.856C136.924 26.76 136.996 26.604 137.092 26.388C137.188 26.172 137.344 25.812 137.56 25.308C137.8 24.78 138.088 24.084 138.424 23.22L146.776 1.8ZM170.81 1.8C172.778 1.8 174.47 2.052 175.886 2.556C177.302 3.036 178.382 3.72 179.126 4.608C179.87 5.496 180.242 6.54 180.242 7.74C180.242 8.916 179.894 9.912 179.198 10.728C178.502 11.544 177.482 12.168 176.138 12.6C174.818 13.032 173.222 13.248 171.35 13.248C171.254 13.248 171.17 13.248 171.098 13.248C171.05 13.248 170.978 13.248 170.882 13.248C170.786 13.248 170.69 13.248 170.594 13.248L172.25 12.672L177.686 20.916C178.886 22.74 179.894 24.096 180.71 24.984C181.55 25.848 182.222 26.364 182.726 26.532L182.69 27.072C181.178 27.36 179.858 27.108 178.73 26.316C177.602 25.524 176.51 24.36 175.454 22.824L175.31 22.572L168.83 12.852L169.082 12.384C169.25 12.384 169.37 12.384 169.442 12.384C169.538 12.384 169.67 12.384 169.838 12.384C172.142 12.384 173.93 11.964 175.202 11.124C176.474 10.26 177.11 9.072 177.11 7.56C177.11 6.528 176.822 5.664 176.246 4.968C175.694 4.272 174.866 3.756 173.762 3.42C172.682 3.06 171.35 2.88 169.766 2.88H165.086L165.662 2.304V23.22C165.662 23.892 165.662 24.444 165.662 24.876C165.662 25.308 165.674 25.668 165.698 25.956C165.746 26.244 165.818 26.544 165.914 26.856V27H162.422V26.856C162.47 26.568 162.506 26.28 162.53 25.992C162.578 25.68 162.602 25.308 162.602 24.876C162.602 24.444 162.602 23.892 162.602 23.22V5.58C162.602 4.908 162.602 4.356 162.602 3.924C162.602 3.492 162.578 3.132 162.53 2.844C162.506 2.532 162.47 2.232 162.422 1.944V1.8H170.81ZM197.196 5.364H196.548C196.308 4.668 195.96 4.092 195.504 3.636C195.072 3.156 194.556 2.808 193.956 2.592C193.38 2.352 192.768 2.232 192.12 2.232C191.04 2.232 190.152 2.532 189.456 3.132C188.76 3.732 188.412 4.584 188.412 5.688C188.412 6.456 188.592 7.26 188.952 8.1C189.312 8.916 189.828 9.684 190.5 10.404L195.396 15.696C196.38 16.776 197.124 17.856 197.628 18.936C198.132 19.992 198.384 21 198.384 21.96C198.384 23.016 198.108 23.964 197.556 24.804C197.004 25.62 196.212 26.268 195.18 26.748C194.172 27.204 192.972 27.432 191.58 27.432C190.5 27.432 189.42 27.276 188.34 26.964C187.26 26.652 186.324 26.196 185.532 25.596L185.424 22.248H186.072C186.336 23.136 186.756 23.892 187.332 24.516C187.908 25.116 188.568 25.572 189.312 25.884C190.056 26.196 190.812 26.352 191.58 26.352C192.756 26.352 193.704 26.028 194.424 25.38C195.144 24.708 195.504 23.796 195.504 22.644C195.504 21.9 195.312 21.12 194.928 20.304C194.568 19.488 194.004 18.672 193.236 17.856L188.34 12.564C187.404 11.556 186.696 10.536 186.216 9.504C185.736 8.448 185.496 7.44 185.496 6.48C185.496 4.944 186.06 3.672 187.188 2.664C188.34 1.656 189.888 1.152 191.832 1.152C193.68 1.152 195.42 1.44 197.052 2.016L197.196 5.364ZM218.34 1.8V3.06H218.232C217.992 3.012 217.728 2.976 217.44 2.952C217.152 2.928 216.804 2.916 216.396 2.916C215.988 2.892 215.496 2.88 214.92 2.88H206.676L207.252 2.304V9.9L206.82 9.468H215.532V10.548H206.82L207.252 10.116V26.496L206.676 25.92H215.892C216.564 25.92 217.116 25.92 217.548 25.92C217.98 25.92 218.34 25.908 218.628 25.884C218.916 25.836 219.216 25.764 219.528 25.668H219.672V27H204.012V26.856C204.084 26.568 204.132 26.28 204.156 25.992C204.18 25.68 204.192 25.308 204.192 24.876C204.192 24.444 204.192 23.892 204.192 23.22V5.58C204.192 4.908 204.192 4.356 204.192 3.924C204.192 3.492 204.18 3.132 204.156 2.844C204.132 2.532 204.084 2.232 204.012 1.944V1.8H218.34Z" fill="white"/>
</svg>
