<svg width="182" height="73" viewBox="0 0 182 73" fill="none" xmlns="http://www.w3.org/2000/svg">
<path d="M18.7114 0.399998H27.2554V34H18.7114V21.088H9.25544V34H0.663438V0.399998H9.25544V12.832H18.7114V0.399998ZM51.1133 34V17.104L39.2573 34H32.5853V0.399998H41.1773V17.296L53.0333 0.399998H59.6573V34H51.1133ZM92.8159 34H83.2159L73.5679 18.976V34H64.9759V0.399998H73.5679V14.512L82.7359 0.399998H92.3359L81.6799 16.72L92.8159 34ZM113.785 34V17.104L101.929 34H95.2572V0.399998H103.849V17.296L115.705 0.399998H122.329V34H113.785ZM150.688 0.399998V8.704H142.384V34H133.792V8.704H125.488V0.399998H150.688ZM171.909 34L170.469 29.152H159.285L157.845 34H148.533L159.621 0.399998H170.085L181.173 34H171.909ZM161.493 21.76H168.261L164.853 10.336L161.493 21.76ZM40.2738 38.4V46.704H31.9698V72H23.3778V46.704H15.0738V38.4H40.2738ZM61.918 72V55.104L50.062 72H43.39V38.4H51.982V55.296L63.838 38.4H70.462V72H61.918ZM98.8206 38.4V46.704H90.5166V72H81.9246V46.704H73.6206V38.4H98.8206ZM129.049 67.68C125.657 71.04 121.497 72.72 116.569 72.72C111.641 72.72 107.465 71.04 104.041 67.68C100.649 64.288 98.9534 60.128 98.9534 55.2C98.9534 50.272 100.649 46.128 104.041 42.768C107.465 39.376 111.641 37.68 116.569 37.68C121.497 37.68 125.657 39.376 129.049 42.768C132.473 46.128 134.185 50.272 134.185 55.2C134.185 60.128 132.473 64.288 129.049 67.68ZM110.089 61.776C111.817 63.472 113.977 64.32 116.569 64.32C119.161 64.32 121.321 63.472 123.049 61.776C124.777 60.048 125.641 57.856 125.641 55.2C125.641 52.544 124.777 50.368 123.049 48.672C121.321 46.944 119.161 46.08 116.569 46.08C113.977 46.08 111.817 46.944 110.089 48.672C108.361 50.368 107.497 52.544 107.497 55.2C107.497 57.856 108.361 60.048 110.089 61.776ZM159.387 54.624C162.203 56.288 163.611 58.8 163.611 62.16C163.611 65.136 162.587 67.52 160.539 69.312C158.491 71.104 155.755 72 152.331 72H138.171V38.4H151.419C154.779 38.4 157.467 39.264 159.483 40.992C161.499 42.688 162.507 45.008 162.507 47.952C162.507 50.768 161.467 52.992 159.387 54.624ZM151.179 46.08H146.763V51.36H151.179C151.947 51.36 152.587 51.136 153.099 50.688C153.643 50.208 153.915 49.552 153.915 48.72C153.915 47.92 153.659 47.28 153.147 46.8C152.635 46.32 151.979 46.08 151.179 46.08ZM152.091 64.32C152.955 64.32 153.659 64.064 154.203 63.552C154.747 63.008 155.019 62.32 155.019 61.488C155.019 60.624 154.747 59.936 154.203 59.424C153.659 58.912 152.955 58.656 152.091 58.656H146.763V64.32H152.091Z" fill="white"/>
</svg>
