<svg width="90" height="73" viewBox="0 0 90 73" fill="none" xmlns="http://www.w3.org/2000/svg">
<path d="M7.44531 4.21094L7.49219 8.38281L13.2578 1.5625L11.5938 0.460938C9.64062 0.929688 8.25781 2.17969 7.44531 4.21094ZM7.49219 8.66406L13.375 1.67969L19.8672 6.03906L19.9141 8.96875L19.5625 9.57812L19.8672 9.88281V10.2812L19.3281 10.5859L19.9609 10.7734L19.9844 11.2422L18.5781 11.1719L18.8594 11.3594L19.9609 11.5234V11.875L19.2109 12.0625L19.2578 12.4141L19.0469 12.6953L18.5547 12.7656H17.8047L18.5547 13L18.5078 13.3984L18.7891 12.9297L19.3281 12.7422L19.7969 12.4141L19.8672 12.9297L19.2109 13.2344L19.3281 13.4688L19.8438 13.3281L19.9141 13.7969L18.8125 14.0547L19.4922 14.3828L19.9609 14.2656V15.1562L19.2109 14.9922L18.5078 14.2891V14.5L18.9297 15.1562L19.375 15.3438L19.9141 15.5078L19.8672 15.8594L19.2812 15.9297L19.8672 16.5625L19.9609 16.8438L19.4922 16.6328L18.9062 16.2578L18.9297 16.6328L19.3281 17.1016L19.8438 17.4531L20.0312 17.7812L19.4922 17.6172L19.0469 17.2656L18.4375 17.6641L17.6875 18.1328L18.625 17.7344L19.2812 17.6172L18.8594 17.8984L18.5078 18.2734L19.4453 17.9688L19.2109 18.3203L18.625 18.7422L19.4922 18.5078L19.3984 18.8594L18.1562 19.4219L18.0391 19.8438L19.1406 19.1875L19.8672 18.9766L19.9141 19.3047L18.8125 20.5234L20.0312 19.7266L19.9844 20.2422L19.1406 21.0156L18.8594 21.3438H18.2266L18.8125 21.4844L18.4375 22.0703L18.1562 22.4688L17.5234 22.5859L18.0859 22.7031L18.2266 23.2891V22.5859L19.2578 21.25L19.9141 20.6406V20.9453L19.3281 21.6016L18.9766 22.2344L18.7891 22.8672L19.2578 22.0469L19.8672 21.4844L20.0312 21.9297L19.9609 22.3047L19.75 22.9375L19.4922 23.0078L19.2109 23.1719L19.0469 23.7578L19.0938 24.2266L19.3281 24.6484L19.375 25.2812L19.4922 24.2969L19.2109 23.8281L19.4922 23.4062L20.0312 23.4531L19.8438 23.7578L19.5625 23.9922L19.8438 24.1797L19.8672 24.5781L19.75 24.7422L19.8672 25.2109V26.2656L19.6328 25.9375L19.8672 26.7344V27.2734L19.4922 26.875L19.6094 27.2734L19.8438 27.6953L19.6328 27.9297L18.7422 26.3828L18.4375 25.7969L18.6953 26.7344L19.1641 27.4609L19.4922 27.9062L19.6328 28.5156L18.9766 27.9297L18.4375 26.6875L18.1094 25.7031L17.5234 25.0938L17.4062 24.4141L17.3359 25.5156L17.9688 26.2188L18.2031 26.875L18.3438 27.3438L18.7891 27.9297L19.2109 28.5156L19.7969 28.9141L19.6094 29.3125L19.2578 29.3594L19.0469 29.6172L18.625 29.8281L19.0938 30.0156L19.4453 30.6016H18.8125L18.7422 30.8359L19.2812 31.0234L18.625 31.8203L18.0859 32.4062L17.5703 31.3047L16.8203 30.0625L16.2812 29.0312L15.7656 28.0938L15.2266 27.0859V21.1094L16.5625 23.0547L15.2734 20.6641V17.3359L16.1641 17.2188L16.3984 16.75L15.625 17.1484L15.2266 17.0781L15.2734 5.92188C14.9453 5.17188 14.4062 4.8125 13.6562 4.84375C12.9062 4.85938 12.4219 5.19531 12.2031 5.85156L12.1328 12.5078L11.7812 12.8594L12.1328 13.0938L12.2031 20.9922L10.7734 18.7188L12.1797 21.4141L12.25 27.5547C12.2969 28.6172 12.7344 29.1797 13.5625 29.2422C14.4062 29.2891 14.9766 28.8516 15.2734 27.9297L18.0391 32.4766C15.3984 34.1641 12.9609 34.4609 10.7266 33.3672C8.50781 32.2734 7.41406 30.7734 7.44531 28.8672L7.39844 27.5547L7.96094 27.8594L7.375 27.0859L7.32812 26.6172L7.75 27.0391L7.32812 26.1719L7.39844 25.7969L7.5625 25.3516L7.49219 24.2266L7.32812 24.1094L7.28125 22L7.5625 21.7656L7.32812 21.1797L7.49219 8.66406ZM19.6094 13.9375L19.2812 14.1016L19.4922 14.2188L19.75 14.1016L19.6094 13.9375ZM19.375 16.7969L19.75 16.9844L19.6797 17.1484L19.375 16.7969ZM19.6797 18.0391L19.5625 18.2734L19.6094 18.7188L19.5625 18.8594L19.8672 18.625V18.25L19.6797 18.0391ZM17.6875 25.4688L18.0859 25.9844L18.0391 26.1484L17.6875 25.7031V25.4688ZM17.8516 23.7578L18.0859 24.1797L18.2734 24.4609L18.3203 24.9297L18.5781 25.3281L19.0234 25.75L19.0469 26.4531L19.2109 25.7031L18.625 25.1172L18.5547 24.5312L17.8047 23.7109L17.8516 23.7578ZM17.1016 25.9844L17.2188 26.2891L17.6875 26.3359L17.1016 25.9844ZM17.875 27.4609L18.0391 27.9766L18.5781 28.0469L17.875 27.4609ZM10.7266 10.4688L10.9141 10.75L10.0938 8.71094L10.7266 10.4688ZM10.1875 8.00781L10.4453 8.125V7.67969L10.1875 8.00781ZM11.0312 11.6875L11.125 12.0391L11.3594 12.1094L11.4297 11.7109L11.0312 11.6875ZM9.85938 11.4062L10.1406 11.3594L10.1875 11.0078L9.85938 11.4062ZM8.92188 20.6406L9.50781 20.4062L9.03906 19.8906L8.85156 20.3125L8.42969 20.4766L8.92188 20.6406ZM10.1406 30.3203L10.4922 30.6484L9.48438 28.2109L10.1406 30.3203ZM11.8984 31.8906L12.6719 32.4062L12.0625 30.9531L11.8984 31.8906ZM10.3281 31.3047V31.6562L10.7734 31.6094L10.3281 31.3047ZM11.8516 0.414062L13.375 1.44531L14.8281 0.414062H11.8516ZM13.5859 1.51562L14.8984 0.414062L15.8828 0.460938C17.1641 0.882812 18.1484 1.51562 18.8359 2.35938C19.5234 3.20312 19.8672 4.34375 19.8672 5.78125L13.5859 1.51562ZM16 1.28125L16.5859 1.75L16.9141 1.9375L16.9375 1.63281L17.0312 1.39844L17.2656 1.44531L16.9844 1.28125L16.8203 1.51562L16.5625 1.39844L16 1.28125ZM21.9062 7.23438L22 6.69531L21.9062 5.96875L21.9531 4.9375L22 4.67969L21.7891 4.1875V3.53125L22.0703 3.27344L21.7891 3.03906V2.54688L22.3984 2.99219L21.8359 2.00781L21.7891 1.67969L22.7734 2.45312L21.9062 1.09375V0.554688L22.1641 0.8125L22.2812 0.390625L22.5391 0.4375L22.6094 0.765625L23.4297 1.42188L22.8672 0.390625L23.3594 0.484375L24.4609 1.91406L23.6406 0.4375L24.3906 0.484375L24.625 0.648438L24.5078 0.273438L25.8672 2.28906L25.8203 1.63281L25.0469 0.320312L26.3594 0.390625L26.6875 0.882812L26.5703 0.390625L28.9844 0.367188L29.3594 0.742188L29.6875 0.367188L30.5078 0.296875H31.4688C32.0469 0.375 32.4844 0.539062 32.7812 0.789062L32.1719 1L32.0781 1.23438L33.1094 0.90625C33.7656 1.29688 34.2734 1.89062 34.6328 2.6875L33.4375 2.26562L33.6953 2.64062L34.7969 3.08594L34.7266 5.80469L34.7969 6.50781L34.7266 6.88281L34.2578 6.76562L34.7969 7.375L34.7266 11.5V11.9453C34.6172 12.5234 34.4922 12.9531 34.3516 13.2344C34.2109 13.5 33.8516 13.8125 33.2734 14.1719L32.6641 14.5703L33.4844 14.8047C34.2344 15.0234 34.7578 16.1797 35.0547 18.2734L35.1016 19.0703V19.6328L30.1562 25.2109L29.9922 18.5781C29.9609 18.0781 29.6328 17.7891 29.0078 17.7109H26.9453V30.3203L26.6875 30.6484L27.0156 30.9297L27.0859 31.3281L27.0156 31.6797L26.4062 31.1875L26.9453 32.0781V34.0234H25.375L23.7344 32.9453L25.2109 34.0234H24.0156L23.8047 33.5781L23.6875 34.0234H22.9844L22.8203 33.6953L22.6094 34.0234H22.1172V33.5312L21.7891 33.3203V32.875L22.1641 33.2031L22.5391 33.5312L22.8203 32.9922L21.9062 32.5V32.2891L22.7734 32.7109L21.9062 32.0078L21.7891 31.6328L23.5234 32.3828L24.1797 32.5469L22 31.3516V30.9297L23.1484 31.1875C22.8516 30.9844 22.4531 30.7734 21.9531 30.5547L21.9062 30.1562L23.0312 30.7188L25.0469 31.7969L22.2812 30.0625L22.3281 29.6641L23.4766 30.2734L23.1484 29.7344L23.4297 28.9141L22.5391 28.5391V28.0938L23.1016 28.2578L24.0625 28.75L23.9688 28.375L23.1484 28V27.5078L23.6406 27.7188L24.1328 27.9297L24.0156 27.5547L23.4766 27.2734L23.1484 27.2266C22.9609 26.3203 23.1406 25.8828 23.6875 25.9141L23.7344 25.7734L24.3438 25.9844H24.7188L23.7344 25.2812L23.6406 24.9531L23.5234 24.4141L24.5078 25.375L24.2969 24.8359L22.8203 23.5938L22.7031 23.9688L22.8672 24.1328V24.7891L22.3984 24.8359L22.2812 25.0469L21.7891 25L21.8359 24.5078L22 24.2969L21.7891 24.1328V22.9844L22.4453 23.3828L21.7891 22.6094V22.0234V20.9219H22.1641L22.9375 20.6641L23.5234 20.1719L22.9375 20.5L22.1641 20.7578H21.7891L21.8359 18.9766V14.7344L21.9062 10.1875L22 11.7344L21.8359 11.5234V9.83594L22 9.46094L21.7891 9.08594L21.9062 7.23438ZM21.7891 25.5391L22.3281 25.6094L22.2344 25.375L21.7891 25.4922V25.5391ZM22.8672 27.2266L22.3281 27.2734L22.0703 27.3438L22.6562 27.4375L22.9375 27.3906L22.8672 27.2266ZM21.8359 26.4062V26.0312L22.2344 25.8203L22.1172 26.1484L21.8359 26.4062ZM23.1016 25.0469L22.8203 25.4453L22.7734 25.6094L23.5234 25.4922L23.1016 25.0469ZM30.1328 25.3047L32.6172 22.5391L35.1016 19.7734V28.5859L35.125 30.3906L35.0781 31.9141C34.7031 33.5234 33.6484 34.2422 31.9141 34.0703L30.6484 34.0234L31.3984 33.5312L31.1875 33.1094H31.6328L31.2344 32.3828L31.6797 32.0078L31.3047 31.2578L31.0938 32.0781L30.7656 32.7109L31.1875 32.9453L30.4844 34.0703L26.8047 34.0234L27.0156 30.9297V30.0625C29.2188 30.2031 30.2578 29.4844 30.1328 27.9062V25.3047ZM30.0625 0.695312V1.16406L30.6016 0.578125L30.0625 0.695312ZM30.3906 1.9375L29.8984 2.05469L29.7812 2.47656L29.9453 2.19531L30.3906 1.9375ZM28.8672 2.52344L29.1484 3.08594L29.4062 2.59375L28.8672 2.52344ZM31.75 1.16406L31.8672 1.5625L32.3359 1.60938L32.2422 1.11719L31.75 1.16406ZM29.9453 2.92188L30.3906 3.25L30.5547 2.85156L29.9453 2.92188ZM30.8125 2.6875L31.4219 3.29688V2.80469L30.8125 2.6875ZM32.0781 3.71875L32.1719 4.11719L32.4531 3.78906L32.0781 3.71875ZM30.6016 4.21094L30.9766 4.75L31.0938 4.32812L30.6016 4.21094ZM28.9141 3.67188L29.1953 4V3.50781L28.9141 3.67188ZM32.7344 4.98438L33.0625 5.35938L33.2734 4.75L32.7344 4.98438ZM22.7031 5.05469L24.5547 8.26562L24.625 8.05469L22.7031 5.05469ZM25.0938 5.38281L25.2578 5.75781L25.6562 5.5L25.0938 5.38281ZM22.3281 7.9375L22.8203 8.26562L22.6094 7.60938L22.3281 7.9375ZM23.0312 9.29688L23.7344 9.95312L23.4297 9.34375L23.0312 9.29688ZM25.5859 8.80469L26.2891 9.25L25.9844 8.64062L25.5859 8.80469ZM23.9688 10.6562L24.625 11.4062L24.3438 10.7734L24.8828 10.3281L23.9688 10.6562ZM28.75 12.8125L29.4766 13.2578L29.6172 12.9766L28.75 12.8125ZM31.7969 9.10938L31.375 9.92969L31.9609 9.4375L33.0625 10.0938L31.7969 9.10938ZM30.8125 8.40625L31.6328 8.5L31.4219 8.40625H30.8125ZM26.7344 4.89062V11.2656L26.6172 11.6406L27.0156 11.2656L28.7031 11.2422C29.25 11.2109 29.6094 10.9375 29.7812 10.4219V5.80469C29.75 5.28906 29.4453 4.97656 28.8672 4.86719L26.7344 4.89062ZM31.7969 26.1953L32.9219 27.4375L32.875 26.8984L31.7969 26.1953ZM37.6562 7.30469L37.75 6.76562L37.6562 6.03906L37.7031 5.00781L37.75 4.75L37.5391 4.25781V3.60156L37.8203 3.34375L37.5391 3.10938V2.61719L38.1484 3.0625L37.5859 2.07812L37.5391 1.75L38.5234 2.52344L37.6562 1.16406V0.625L37.9141 0.882812L38.0312 0.460938L38.2891 0.507812L38.3594 0.835938L39.1797 1.49219L38.6172 0.460938L39.1094 0.554688L40.2109 1.98438L39.3906 0.507812L40.1406 0.554688L40.375 0.71875L40.2578 0.34375L41.6172 2.35938L41.5703 1.70312L40.7969 0.390625L42.1094 0.460938L42.4375 0.953125L42.3203 0.460938H45.1562L45.5312 0.835938L45.8594 0.460938L46.6797 0.390625H47.6406C48.2188 0.46875 48.6562 0.632812 48.9531 0.882812L48.3438 1.09375L48.25 1.32812L49.2812 1C49.9375 1.39063 50.4453 1.98438 50.8047 2.78125L49.6094 2.35938L49.8672 2.73438L50.9688 3.17969L50.8984 5.89844L50.9688 6.60156L50.8984 6.97656L50.4297 6.85938L50.9688 7.46875L50.8984 11.5938V13.9844C50.7891 14.5625 50.6641 14.9922 50.5234 15.2734C50.3828 15.5391 50.0234 15.8516 49.4453 16.2109L48.4141 16.5859L49.2344 16.8203C49.9844 17.0391 50.5078 17.5469 50.8047 18.3438L50.8516 19.1406V19.7031L45.9062 25.2812L45.7422 18.6484C45.7109 18.1484 45.3828 17.8594 44.7578 17.7812H42.6953V30.3906L42.4375 30.7188L42.6953 31.2109V31.75L42.1562 31.2578L42.6953 32.1484V34.0938H41.125L39.4844 33.0156L40.9609 34.0938H39.7656L39.5547 33.6484L39.4375 34.0938H38.7344L38.5703 33.7656L38.3594 34.0938H37.8672V33.6016L37.5391 33.3906V32.9453L37.9141 33.2734L38.2891 33.6016L38.5703 33.0625L37.6562 32.5703V32.3594L38.5234 32.7812L37.6562 32.0781L37.5391 31.7031L39.2734 32.4531L39.9297 32.6172L37.75 31.4219V31L38.8984 31.2578C38.6016 31.0547 38.2031 30.8438 37.7031 30.625L37.6562 30.2266L38.7812 30.7891L40.7969 31.8672L38.0312 30.1328L38.0781 29.7344L39.2266 30.3438L38.8984 29.8047L39.1797 28.9844L38.2891 28.6094V28.1641L38.8516 28.3281L39.8125 28.8203L39.7188 28.4453L38.8984 28.0703V27.5781L39.3906 27.7891L39.8828 28L39.7656 27.625L39.2266 27.3438L38.8984 27.2969C38.7109 26.3906 38.8906 25.9531 39.4375 25.9844L39.4844 25.8438L40.0938 26.0547H40.4688L39.4844 25.3516L39.3906 25.0234L39.2734 24.4844L40.2578 25.4453L40.0469 24.9062L38.5703 23.6641L38.4531 24.0391L38.6172 24.2031V24.8594L38.1484 24.9062L38.0312 25.1172L37.5391 25.0703L37.5859 24.5781L37.75 24.3672L37.5391 24.2031V23.0547L38.1953 23.4531L37.5391 22.6797V22.0938V20.9922H37.9141L38.6875 20.7344L39.2734 20.2422L38.6875 20.5703L37.9141 20.8281H37.5391L37.5859 19.0469V16.75L37.6562 12.2031L37.75 11.8047L37.5859 11.5938V9.90625L37.75 9.53125L37.5391 9.15625L37.6562 7.30469ZM37.5391 25.6094L38.0781 25.6797L37.9844 25.4453L37.5391 25.5625V25.6094ZM38.6172 27.2969L38.0781 27.3438L37.8203 27.4141L38.4062 27.5078L38.6875 27.4609L38.6172 27.2969ZM37.5859 26.4766V26.1016L37.9844 25.8906L37.8672 26.2188L37.5859 26.4766ZM38.8516 25.1172L38.5703 25.5156L38.5234 25.6797L39.2734 25.5625L38.8516 25.1172ZM45.9062 25.4453L50.8516 19.8438V31.6562L50.5234 31.9844L50.8516 32.2891V34.0938L47.3828 34.0469L47.1484 33.6016L46.9375 33.1797H47.3828L46.9844 32.4531L47.4297 32.0781L47.0547 31.3281L46.8438 32.1484L46.5156 32.7812L46.9375 33.0156L46.5625 33.4375L47.0547 34.0938H45.9531L45.9062 25.4453ZM46.2344 0.789062V1.25781L46.7734 0.671875L46.2344 0.789062ZM46.5625 2.03125L46.0703 2.14844L45.9531 2.57031L46.1172 2.28906L46.5625 2.03125ZM45.0391 2.61719L45.3203 3.17969L45.5781 2.6875L45.0391 2.61719ZM47.9219 1.25781L48.0391 1.65625L48.5078 1.70312L48.4141 1.21094L47.9219 1.25781ZM46.1172 3.01562L46.5625 3.34375L46.7266 2.94531L46.1172 3.01562ZM46.9844 2.78125L47.5938 3.39062V2.89844L46.9844 2.78125ZM48.25 3.8125L48.3438 4.21094L48.625 3.88281L48.25 3.8125ZM46.7734 4.30469L47.1484 4.84375L47.2656 4.42188L46.7734 4.30469ZM45.0859 3.76562L45.3672 4.09375V3.60156L45.0859 3.76562ZM48.9062 5.07812L49.2344 5.45312L49.4453 4.84375L48.9062 5.07812ZM38.4531 5.125L40.3047 8.33594L40.375 8.125L38.4531 5.125ZM40.8438 5.45312L41.0078 5.82812L41.4062 5.57031L40.8438 5.45312ZM38.0781 8.00781L38.5703 8.33594L38.3594 7.67969L38.0781 8.00781ZM38.7812 9.36719L39.4844 10.0234L39.1797 9.41406L38.7812 9.36719ZM41.3359 8.875L42.0391 9.32031L41.7344 8.71094L41.3359 8.875ZM39.7188 10.7266L40.375 11.4766L40.0938 10.8438L40.6328 10.3984L39.7188 10.7266ZM44.9219 14.8516L45.6484 15.2969L45.7891 15.0156L44.9219 14.8516ZM47.9688 9.20312L47.5469 10.0234L48.1328 9.53125L49.2344 10.1875L47.9688 9.20312ZM46.9844 8.5L47.8047 8.59375L47.5938 8.5H46.9844ZM42.4844 4.96094V13.2812L42.3672 13.6562L42.7656 13.2812H44.875C45.4219 13.25 45.7812 12.9766 45.9531 12.4609V5.89844C45.9219 5.38281 45.6172 5.07031 45.0391 4.96094H42.4844ZM47.5469 26.2656L48.6719 27.5078L48.625 26.9688L47.5469 26.2656ZM52.4922 34H54.0859L54.6484 32.5L56.0781 31.8906L57.2969 31.5625L57.5312 32.0781L56.6875 32.2188L55.5859 32.5L56.1484 32.5703L56.9688 32.7812L57.2969 33.3438L56.2656 32.8984L55.8203 32.9453L55.0469 32.5L54.6953 33.0625L54.2734 34H57.6484L57.9531 30.4609L57.9766 29.125H59.6406L59.8047 27.9766L59.9453 28.8672L60.7188 27.8594L60.0156 29.125L63.5078 29.1953L63.7891 33.9531H65.9453L66.1562 33.4609L66.6953 33.9297L68.8047 33.8828L68.5703 30.3438L61.8906 23.9922L63.5547 24.1562L63.3906 22.9844L63.4375 24.0859L62.875 24.1094L60.7188 3.85938L60.5078 3.8125L59.1953 19.7969L58.8672 20.1719L58.9141 21.2266L54.4141 17.1953L56.2422 0.390625L56.9688 0.320312L57.2969 0.71875L57.5312 0.320312H62.0078L62.3828 3.13281H62.5703L62.5 0.390625H65.1719L68.5938 30.2969L61.7266 24.0391L58.6797 23.9922L58.7969 22.7031L58.6328 22.2812L58.8438 22.0469V21.3438L54.3203 17.3594L54.25 19.5156L55.0938 20.9453L54.0859 19.9609V20.2891L54.9766 22.1172L53.9219 20.8281V21.4609L54.5781 22.3281L55.0938 23.1719L55.5859 24.0859C55.5547 24.6797 55.3203 24.8516 54.8828 24.6016L54.4375 24.2266L54.6484 24.1562C55.0859 24.625 55.3125 24.625 55.3281 24.1562L54.8828 23.3125L53.875 21.8828L53.8281 22.0703L54.3672 23.1016L53.7578 22.4453L53.7109 22.9375L54.1562 24.1094L53.7578 23.4766L53.6406 23.9453L53.9453 24.8594L53.4297 24.6953L53.3359 25.375L53.8047 25.9141L53.3359 25.8672L53.3125 26.4297L53.5 26.9922L53.1484 27.1562L53.0547 29.0312L53.3125 29.3594C53.5469 29.6562 53.8125 29.6562 54.1094 29.3594C54.3281 29.125 54.4375 28.7344 54.4375 28.1875L54.3672 27.3672C54.5234 27.5547 54.6172 27.8984 54.6484 28.3984C54.6172 28.8828 54.5078 29.2578 54.3203 29.5234C53.8828 29.8828 53.5156 29.9141 53.2188 29.6172L52.9375 29.4062L52.8203 30.9062L52.4922 34ZM62.5469 3.74219H62.2891L62.9453 11.0078L63.1094 10.9375L62.5469 3.74219ZM56.875 3.15625L56.6406 3.46094L56.9688 3.36719L56.875 3.15625ZM64.2812 2.96875L63.8359 3.13281L63.9297 3.41406H64.4219L64.2812 2.96875ZM61.8906 5.57031L61.6797 5.28906L61.6328 5.61719L61.8906 5.57031ZM56.8047 14.4766L57.2031 15.1562L57.5781 15.0859L57.4141 14.8047L57.0156 14.6406L56.8047 14.4766ZM58.5156 18.0859L57.9531 18.5078L58.4219 18.5781L58.5156 18.0859ZM56.0312 27.3203L56.1484 27.4844L56.0312 27.8594L55.6562 28.0234L55.75 27.6953L56.0312 27.3203ZM58.2344 27.625L56.6875 27.4141H58.4688L58.2344 27.625ZM59.125 27.1328L59.5703 27.2031V27.4844L59.0312 27.625L59.125 27.1328ZM54.9766 22.3984L56.0781 24.2266L56.1484 24.5547L54.9766 22.3984ZM56.1953 22.375L56.2422 22.3281L56.5703 22.4922L56.875 23.4297L56.1953 22.375ZM56.7109 22.0703L57.4141 22.8438L57.2031 22.7734L56.7109 22.0703ZM57.4141 21.8359L57.9531 22.2109L58.1875 22.6562L57.4141 21.8359ZM55.7031 26.0781L55.5859 25.1641L55.8203 25.7734L55.7031 26.0781ZM55.2578 26.5234L54.9766 25.5391L55.4219 26.2656L55.2578 26.5234ZM54.5781 26.3828L54.1562 25.5859L54.8594 26.3828L54.7188 26.6875L54.5312 27.1328L54.4375 26.8516L54.5781 26.3828ZM53.7578 26.4766H53.8047L54.0859 26.8047L53.8047 27.1328L53.7578 26.4766ZM67.7969 31.3984L68.5234 32.0078L68.5703 32.2422L67.8672 31.6328L67.7969 31.3984ZM70.4219 5.35938L70.3516 4.91406L70.7266 4.89062L70.5625 4.58594V4.30469L70.3984 4L70.4219 3.74219L70.75 4.07031L71.4062 4.58594L70.4688 3.22656L70.3984 2.80469L71.0781 3.25L70.5156 2.17188V1.75L71.4062 2.66406L70.6328 1.46875L70.7266 1.16406L72.2266 3.01562L72.4141 2.94531L73.6328 4.51562L72.4609 2.66406L72.25 2.73438L70.75 0.578125L70.9609 0.390625L71.1953 0.507812L72.0625 1.79688L71.3594 0.34375L71.7578 0.390625L73.6797 3.57812L72.25 0.414062L72.6719 0.34375L72.9766 0.71875L73.0234 0.34375L73.4688 0.390625L73.5625 0.90625V1.44531L73.9141 2.00781L74.3125 2.40625L74.4766 2.80469V2.05469L74.0312 1.44531L73.75 1.16406L73.6797 0.507812L73.6328 0.390625L77.0312 0.34375L77.2422 0.671875H77.5938V0.34375H77.875L77.9219 0.742188H78.3203L78.3672 0.390625H81.5781L80.4766 5.89844L77.0312 3.74219L75.2031 2.78125L75.0391 2.94531L77.0781 3.85938L80.4297 6.01562L78.3672 16.9141L77.875 17.0312L78.3672 17.2656L78.2969 18.6016L77.5938 20.5234V21.5312L77.125 24.4375H76.5156L76.3516 24.6953L76.0703 24.7188L75.625 24.6016L75.25 24.6953L75.6953 24.7656L76.1875 24.9297L76.5859 24.8594L76.9141 24.9297L76.3047 27.9297L75.2969 28.1406L76.1875 28.3281V29.1016H81.9062L81.6953 30.2031L80.8047 29.6641L81.6484 30.4844L81.5312 33.8359L80.125 33.8828L80.0312 33.2734L79.5859 32.6641L79.8672 33.3203L79.9609 33.8828L74.0781 33.8359L72.9531 32.8281L73.1406 31.9844L72.7891 32.7578L70.8672 31.1172L71.125 29.9219L71.2891 28.375L71.6172 27.1094L71.8984 25.9844L72.6719 25.6094L72.7891 25.5391L73.5625 25.4922L73.9609 25.5859L73.7969 25.1641L74.2891 25.0469L74.9219 24.8828H74.4062L73.7031 25.0469L73.3516 25.3047L72.9062 25.4219L71.9219 25.3047L72.7422 21.5312L73.5859 17.0781L74.7578 11.9688L75.25 9.13281L75.8594 9.01562L75.25 8.47656L75.8125 5.28906L73.5859 5.24219L72.6953 4.96094L72.7422 5.28906L70.4219 5.35938ZM74.7578 0.460938L75.0859 1.07031L75.4609 1.91406L75.7891 2.35938L76.4688 2.85156L76.9844 3.01562L76.4219 2.6875L75.7891 2.05469L75.3672 1.39844L75.1328 0.90625L74.7578 0.460938ZM73.8438 2.85156L74.3594 3.55469L73.9609 2.80469L73.5625 2.125L73.8438 2.85156ZM71.8047 3.85938L72.0156 4.30469L72.2969 4.51562L72.0859 4.11719L71.9219 3.67188L71.8047 3.85938ZM76.1406 4.67969H76.5859L76.6797 4.23438H76.3047L76.1406 4.67969ZM77.7344 3.55469L77.8516 3.90625H78.1328L77.7344 3.55469ZM75.9531 13.0234L76.1406 12.7891H75.5781L75.9531 13.0234ZM76.4688 21.1328L77.0781 21.0391H76.3047L76.4688 21.1328ZM76.3047 23.2188L76.5156 23.7109L76.6797 23.3125L76.3047 23.2188ZM73.5859 21.0859L73.5625 21.5781L73.7969 21.4141L73.5859 21.0859ZM70.8672 31.375L72.7891 32.9453L72.5078 33.5078L72.8594 33.0625L73.9141 33.8828H70.5625L70.6328 32.1719L70.8672 31.375ZM80.7109 31.2578L80.3125 31.7734L80.7578 31.4922L80.7109 31.2578ZM7.98438 49.2188V45.6797L8.19531 45.5625L7.98438 45.2578L7.89062 43.5469C7.59375 43.0625 7.13281 42.7891 6.50781 42.7266L5.57031 40.5469L6.36719 42.7266C5.82031 42.7266 5.39844 43.0156 5.10156 43.5938V46.3828L4.89062 46.6875L5.05469 47.0391L5.10156 48.6094L4.58594 48.2109L5.10156 49.0781V50.0859C5.10156 50.5547 5.27344 50.9062 5.61719 51.1406L10.1641 55.0078L11.5469 56.2266C12.0156 56.5703 12.2344 57.0234 12.2031 57.5859L11.2422 58.0078L12.2031 57.9609L7.84375 64.5938V63.375L8.05469 63.0703L7.79688 62.7188L7.84375 60.375C7.8125 59.8438 7.60938 59.4922 7.23438 59.3203L5.05469 57.4453L6.0625 56.7422L4.65625 57L1.60938 54.4453C0.859375 53.8672 0.484375 53.2812 0.484375 52.6875V47.3438L1.14062 48.1172L1.53906 47.9531L1.1875 47.8594L0.53125 46.9453L0.484375 41.9297C0.65625 40.7734 1.19531 39.9062 2.10156 39.3281L3.22656 41.0156L2.26562 39.1875C3 38.75 3.65625 38.4922 4.23438 38.4141L5.24219 39.4219L4.35156 38.3672H8.33594C10.3672 38.7734 11.6719 39.7734 12.25 41.3672L11.6875 41.8125L12.2969 41.625L12.3438 42.1172L11.3359 42.7734L12.3438 42.2344V43.7578L12.0391 44.1094L11.4531 43.4297L8.94531 41.625L9.25 40.8047L8.71094 41.5078L6.67188 40.1953L7.375 40.8984L6.22656 41.0625H7.75L11.3828 43.5L11.0781 44.2969L11.5938 43.6875L11.9453 44.2969L12.3438 44.0625V45.9375L12.0625 46.3359L12.3672 46.6875L11.9922 47.0391L12.3438 47.2969L12.2969 49.2188H7.98438ZM7.89062 64.8047L12.2969 58.0547L12.3438 63.1875L11.9922 63.6328L12.3672 64.0781L12.2969 64.5938L11.5938 63.8906L12.2969 65.1562L10.9375 64.1484L12.2969 65.6016V66.375L12.0625 66.8203L12.3438 67.1953L12.2969 68.0391L11.8984 68.5547L11.4297 67.8516L11.2422 68.4609L11.8047 68.7656L11.5 69.7266C11.0469 70.7422 10.2188 71.4531 9.01562 71.8594L8.75781 70.5234L8.85156 71.9062L4.39844 71.9531C2.02344 71.25 0.71875 69.9688 0.484375 68.1094L0.4375 61.3125H5.00781V66.0703C5.07031 66.7422 5.34375 67.1406 5.82812 67.2656C6.32812 67.375 6.76562 67.3672 7.14062 67.2422C7.53125 67.1016 7.78125 66.8125 7.89062 66.375V64.8047ZM2.05469 46.8516L2.57031 47.1562L2.75781 46.8984L2.05469 46.8516ZM3.13281 46.125L3.4375 45.8672H3.71875L3.13281 46.125ZM2.45312 47.7422L2.875 48.0703L3.0625 47.7656L2.45312 47.7422ZM3.22656 49.7812L3.57812 50.2969L3.71875 49.9922L3.22656 49.7812ZM1.75 50.7891L2.00781 51.1641L2.3125 50.6953L1.75 50.7891ZM2.52344 51.3516L4.04688 52.4297L2.57031 51.1641L2.52344 51.3516ZM3.17969 54.5625L4.23438 55.5703L4.63281 55.5234L3.17969 54.5625ZM6.17969 53.6953L6.22656 54.1406L6.625 53.9297L6.32031 53.6953H6.17969ZM8.24219 54.8672L8.33594 55.4062L8.5 55.0547L8.24219 54.8672ZM8.96875 55.4531L9.0625 55.8281L9.36719 55.7578L9.41406 55.4766L8.96875 55.4531ZM10.0234 55.4062L9.97656 55.8281L10.4688 55.7812V55.5703L10.0234 55.4062ZM10.0234 56.1328V57.3281L10.4922 56.3906L10.0234 56.1328ZM9.92969 57.7031L9.85938 58.2422L10.2344 58.0078L9.92969 57.7031ZM8.75781 60.4453L8.80469 60.9375L9.20312 60.6797L9.0625 60.4453H8.75781ZM2.40625 68.5547L2.75781 68.6484L1.75 66.375L2.40625 68.5547ZM8.71094 67.125L8.80469 66.6797H8.28906L8.71094 67.125ZM8.19531 67.2422L8.33594 67.7344L8.64062 67.5938L8.19531 67.2422ZM8.10156 68.25L7.49219 69L8.03125 69.375L7.63281 68.9062L8.10156 68.25ZM4.28125 69.3281L4.1875 69.9609L5.00781 70.5938L4.39844 69.3281H4.28125ZM3.01562 69.3047L2.71094 69.4219V69.8672L3.01562 69.3047ZM8.35938 68.8594L8.5 69.5625L8.71094 69.9844V69.375L8.35938 68.8594ZM10.4688 62.0156L10.2344 62.5078L10.6797 62.3672L10.4688 62.0156ZM18.5312 71.9062L18.5781 69.2578L18.4844 63.5859H18.6484L18.7891 64.4062L19.375 64.2188L19.0703 64.0078L18.9297 63.5859L19.4688 63.6797L19.8672 64.2188V63.6328L19.4219 63.375L19.3281 63.0938H19.8672L19.6094 62.8828L19.2812 62.7891L18.9766 63.1875L18.4844 63.1406L18.4375 59.1094L18.625 58.7812L19.2344 59.2031L19.8203 59.2734V58.7344L21.9297 59.8594L20.6875 59.1094L19.375 58.2891L19.1875 57.8438L19.6094 57.6094L19.1172 56.9062L19.1875 56.5312L19.5156 56.4609L19.1875 56.1797L18.9766 55.3359L18.3906 54.2109V49.9453L18.7891 49.3125L18.3906 49.125V48.2812L18.5781 47.7422L18.4375 47.3672L18.5312 46.7344L18.4375 45.9375L18.9297 46.0781L19.1641 47.3672L19.1875 45.7969L18.5781 45.4453L18.625 44.9062L18.9297 44.7188L18.7422 44.0391V43.5469L19.1172 43.0547L18.7891 42.9375L18.9297 41.4375L18.7891 42.1172L18.4844 42.9609L17.7109 43.2891L16.0938 43.3359L15.5078 43.2891L14.5703 43.3828L14.6172 38.4844L16.5859 38.3438L16.8672 38.7422L17.1719 38.4375H18.7422L20.0078 40.3594L19.0234 38.4844H25.4453L25.0938 39.1172L25.8438 38.4844L26.125 38.5312V43.2422H24.625L23.6875 43.2891L22.75 43.3359V48.7266V67.4062L22.5625 67.9922L22.75 68.3672L22.7969 71.9531L18.5312 71.9062ZM18.3438 57.8906L18.8359 58.0312V58.4297H18.4375L18.3438 57.8906ZM15.8828 41.7656H15.2969L15.4609 42.2109L15.8359 42.0703L15.8828 41.7656ZM25.5391 40.1484L25.2578 40.0547L25.1406 40.9453L25.3984 40.6406L25.5391 40.1484ZM22.8438 40.3125L22.3984 40.4531L22.4219 40.9453L22.8906 40.7344L22.8438 40.3125ZM21.7188 40.8047L21.6719 41.2266L22.3047 41.7656L21.7188 40.8047ZM21.7188 40.1953L21.2734 40.1016L21.3203 40.5938L21.7188 40.1953ZM19.9609 44.8125L19.6094 44.5781L19.7734 45.4922L19.9609 44.8125ZM20.2422 46.3359L19.6562 45.7031L19.7031 46.875L20.0547 47.25L20.2422 46.3359ZM21.2734 44.9531L20.7812 44.8125V45.1172L21.2266 45.3047L21.2734 44.9531ZM19.2344 51.6094L19.1172 50.3906L19.0703 51.4688V51.9141L19.3281 52.0547L19.5156 52.2188L20.7812 52.9922L19.4219 51.9141L19.2344 51.6094ZM19.375 48.6797L19.0703 47.8359L19.1172 48.4453L19.1875 49.3594L19.375 48.6797ZM20.8984 48.4922H20.5469L20.9922 48.8672L20.8984 48.4922ZM20.9453 49.9453L20.7344 49.9922L20.9922 50.5312L21.2734 50.25L20.9453 49.9453ZM20.8047 55.3828L20.4062 55.4531L20.7812 55.7344L20.8047 55.3828ZM20.1016 60.0938L19.6094 60L19.5156 60.5391L19.1172 60.7734L19.1641 61.0312L19.5156 61.3594L19.1172 61.5234L19.1875 61.8984L20.0078 62.3438L19.5156 61.8047L19.9609 61.4766L19.7266 61.2188L19.7031 60.9375L19.4688 60.7734L20.0078 60.4922L20.1016 60.0938ZM19.375 52.6406L19.3281 53.0859L19.5156 53.1328L19.375 52.6406ZM22.8438 39.9141L22.5625 39.6562V40.0078L22.8438 39.9141ZM21.1797 41.9766L20.6875 41.8828L20.8047 42.2578L21.1797 41.9766ZM28.1172 45.3047L28.2109 44.7656L28.1172 44.0391L28.1641 43.0078L28.2109 42.75L28 42.2578V41.6016L28.2812 41.3438L28 41.1094V40.6172L28.6094 41.0625L28.0469 40.0781L28 39.75L28.9844 40.5234L28.1172 39.1641V38.625L28.375 38.8828L28.4922 38.4609L28.75 38.5078L28.8203 38.8359L29.6406 39.4922L29.0781 38.4609L29.5703 38.5547L30.6719 39.9844L29.8516 38.5078L30.6016 38.5547L30.8359 38.7188L30.7188 38.3438L32.0781 40.3594L32.0312 39.7031L31.2578 38.3906L32.5703 38.4609L32.8984 38.9531L32.7812 38.4609H35.6172L35.9922 38.8359L36.3203 38.4609L37.1406 38.3906H38.1016C38.6797 38.4688 39.1172 38.6328 39.4141 38.8828L38.8047 39.0938L38.7109 39.3281L39.7422 39C40.3984 39.3906 40.9062 39.9844 41.2656 40.7812L40.0703 40.3594L40.3281 40.7344L41.4297 41.1797L41.3594 43.8984L41.4297 44.6016L41.3594 44.9766L40.8906 44.8594L41.4297 45.4688L41.3594 49.5938V51.9844C41.25 52.5625 41.125 52.9922 40.9844 53.2734C40.8438 53.5391 40.4844 53.8516 39.9062 54.2109L38.875 54.5859L39.6953 54.8203C40.4453 55.0391 40.9688 55.5469 41.2656 56.3438L41.3125 57.1406V57.7031L36.3672 63.2812L36.2031 56.6484C36.1719 56.1484 35.8438 55.8594 35.2188 55.7812H33.1562V68.3906L32.8984 68.7188L33.1562 69.2109V69.75L32.6172 69.2578L33.1562 70.1484V72.0938H31.5859L29.9453 71.0156L31.4219 72.0938H30.2266L30.0156 71.6484L29.8984 72.0938H29.1953L29.0312 71.7656L28.8203 72.0938H28.3281V71.6016L28 71.3906V70.9453L28.375 71.2734L28.75 71.6016L29.0312 71.0625L28.1172 70.5703V70.3594L28.9844 70.7812L28.1172 70.0781L28 69.7031L29.7344 70.4531L30.3906 70.6172L28.2109 69.4219V69L29.3594 69.2578C29.0625 69.0547 28.6641 68.8438 28.1641 68.625L28.1172 68.2266L29.2422 68.7891L31.2578 69.8672L28.4922 68.1328L28.5391 67.7344L29.6875 68.3438L29.3594 67.8047L29.6406 66.9844L28.75 66.6094V66.1641L29.3125 66.3281L30.2734 66.8203L30.1797 66.4453L29.3594 66.0703V65.5781L29.8516 65.7891L30.3438 66L30.2266 65.625L29.6875 65.3438L29.3594 65.2969C29.1719 64.3906 29.3516 63.9531 29.8984 63.9844L29.9453 63.8438L30.5547 64.0547H30.9297L29.9453 63.3516L29.8516 63.0234L29.7344 62.4844L30.7188 63.4453L30.5078 62.9062L29.0312 61.6641L28.9141 62.0391L29.0781 62.2031V62.8594L28.6094 62.9062L28.4922 63.1172L28 63.0703L28.0469 62.5781L28.2109 62.3672L28 62.2031V61.0547L28.6562 61.4531L28 60.6797V60.0938V58.9922H28.375L29.1484 58.7344L29.7344 58.2422L29.1484 58.5703L28.375 58.8281H28L28.0469 57.0469V54.75L28.1172 50.2031L28.2109 49.8047L28.0469 49.5938V47.9062L28.2109 47.5312L28 47.1562L28.1172 45.3047ZM28 63.6094L28.5391 63.6797L28.4453 63.4453L28 63.5625V63.6094ZM29.0781 65.2969L28.5391 65.3438L28.2812 65.4141L28.8672 65.5078L29.1484 65.4609L29.0781 65.2969ZM28.0469 64.4766V64.1016L28.4453 63.8906L28.3281 64.2188L28.0469 64.4766ZM29.3125 63.1172L29.0312 63.5156L28.9844 63.6797L29.7344 63.5625L29.3125 63.1172ZM36.3672 63.4453L41.3125 57.8438V69.6562L40.9844 69.9844L41.3125 70.2891V72.0938L37.8438 72.0469L37.6094 71.6016L37.3984 71.1797H37.8438L37.4453 70.4531L37.8906 70.0781L37.5156 69.3281L37.3047 70.1484L36.9766 70.7812L37.3984 71.0156L37.0234 71.4375L37.5156 72.0938H36.4141L36.3672 63.4453ZM36.6953 38.7891V39.2578L37.2344 38.6719L36.6953 38.7891ZM37.0234 40.0312L36.5312 40.1484L36.4141 40.5703L36.5781 40.2891L37.0234 40.0312ZM35.5 40.6172L35.7812 41.1797L36.0391 40.6875L35.5 40.6172ZM38.3828 39.2578L38.5 39.6562L38.9688 39.7031L38.875 39.2109L38.3828 39.2578ZM36.5781 41.0156L37.0234 41.3438L37.1875 40.9453L36.5781 41.0156ZM37.4453 40.7812L38.0547 41.3906V40.8984L37.4453 40.7812ZM38.7109 41.8125L38.8047 42.2109L39.0859 41.8828L38.7109 41.8125ZM37.2344 42.3047L37.6094 42.8438L37.7266 42.4219L37.2344 42.3047ZM35.5469 41.7656L35.8281 42.0938V41.6016L35.5469 41.7656ZM39.3672 43.0781L39.6953 43.4531L39.9062 42.8438L39.3672 43.0781ZM28.9141 43.125L30.7656 46.3359L30.8359 46.125L28.9141 43.125ZM31.3047 43.4531L31.4688 43.8281L31.8672 43.5703L31.3047 43.4531ZM28.5391 46.0078L29.0312 46.3359L28.8203 45.6797L28.5391 46.0078ZM29.2422 47.3672L29.9453 48.0234L29.6406 47.4141L29.2422 47.3672ZM31.7969 46.875L32.5 47.3203L32.1953 46.7109L31.7969 46.875ZM30.1797 48.7266L30.8359 49.4766L30.5547 48.8438L31.0938 48.3984L30.1797 48.7266ZM35.3828 52.8516L36.1094 53.2969L36.25 53.0156L35.3828 52.8516ZM38.4297 47.2031L38.0078 48.0234L38.5938 47.5312L39.6953 48.1875L38.4297 47.2031ZM37.4453 46.5L38.2656 46.5938L38.0547 46.5H37.4453ZM32.9453 42.9609V51.2812L32.8281 51.6562L33.2266 51.2812H35.3359C35.8828 51.25 36.2422 50.9766 36.4141 50.4609V43.8984C36.3828 43.3828 36.0781 43.0703 35.5 42.9609H32.9453ZM38.0078 64.2656L39.1328 65.5078L39.0859 64.9688L38.0078 64.2656ZM42.9531 72H44.5469L45.1094 70.5L46.5391 69.8906L47.7578 69.5625L47.9922 70.0781L47.1484 70.2188L46.0469 70.5L46.6094 70.5703L47.4297 70.7812L47.7578 71.3438L46.7266 70.8984L46.2812 70.9453L45.5078 70.5L45.1562 71.0625L44.7344 72H48.1094L48.4141 68.4609L48.4375 67.125H50.1016L50.2656 65.9766L50.4062 66.8672L51.1797 65.8594L50.4766 67.125L53.9688 67.1953L54.25 71.9531H56.4062L56.6172 71.4609L57.1562 71.9297L59.2656 71.8828L59.0312 68.3438L52.3516 61.9922L54.0156 62.1562L53.8516 60.9844L53.8984 62.0859L53.3359 62.1094L51.1797 41.8594L50.9688 41.8125L49.6562 57.7969L49.3281 58.1719L49.375 59.2266L44.875 55.1953L46.7031 38.3906L47.4297 38.3203L47.7578 38.7188L47.9922 38.3203H52.4688L52.8438 41.1328H53.0312L52.9609 38.3906H55.6328L59.0547 68.2969L52.1875 62.0391L49.1406 61.9922L49.2578 60.7031L49.0938 60.2812L49.3047 60.0469V59.3438L44.7812 55.3594L44.7109 57.5156L45.5547 58.9453L44.5469 57.9609V58.2891L45.4375 60.1172L44.3828 58.8281V59.4609L45.0391 60.3281L45.5547 61.1719L46.0469 62.0859C46.0156 62.6797 45.7812 62.8516 45.3438 62.6016L44.8984 62.2266L45.1094 62.1562C45.5469 62.625 45.7734 62.625 45.7891 62.1562L45.3438 61.3125L44.3359 59.8828L44.2891 60.0703L44.8281 61.1016L44.2188 60.4453L44.1719 60.9375L44.6172 62.1094L44.2188 61.4766L44.1016 61.9453L44.4062 62.8594L43.8906 62.6953L43.7969 63.375L44.2656 63.9141L43.7969 63.8672L43.7734 64.4297L43.9609 64.9922L43.6094 65.1562L43.5156 67.0312L43.7734 67.3594C44.0078 67.6562 44.2734 67.6562 44.5703 67.3594C44.7891 67.125 44.8984 66.7344 44.8984 66.1875L44.8281 65.3672C44.9844 65.5547 45.0781 65.8984 45.1094 66.3984C45.0781 66.8828 44.9688 67.2578 44.7812 67.5234C44.3438 67.8828 43.9766 67.9141 43.6797 67.6172L43.3984 67.4062L43.2812 68.9062L42.9531 72ZM53.0078 41.7422H52.75L53.4062 49.0078L53.5703 48.9375L53.0078 41.7422ZM47.3359 41.1562L47.1016 41.4609L47.4297 41.3672L47.3359 41.1562ZM54.7422 40.9688L54.2969 41.1328L54.3906 41.4141H54.8828L54.7422 40.9688ZM52.3516 43.5703L52.1406 43.2891L52.0938 43.6172L52.3516 43.5703ZM47.2656 52.4766L47.6641 53.1562L48.0391 53.0859L47.875 52.8047L47.4766 52.6406L47.2656 52.4766ZM48.9766 56.0859L48.4141 56.5078L48.8828 56.5781L48.9766 56.0859ZM46.4922 65.3203L46.6094 65.4844L46.4922 65.8594L46.1172 66.0234L46.2109 65.6953L46.4922 65.3203ZM48.6953 65.625L47.1484 65.4141H48.9297L48.6953 65.625ZM49.5859 65.1328L50.0312 65.2031V65.4844L49.4922 65.625L49.5859 65.1328ZM45.4375 60.3984L46.5391 62.2266L46.6094 62.5547L45.4375 60.3984ZM46.6562 60.375L46.7031 60.3281L47.0312 60.4922L47.3359 61.4297L46.6562 60.375ZM47.1719 60.0703L47.875 60.8438L47.6641 60.7734L47.1719 60.0703ZM47.875 59.8359L48.4141 60.2109L48.6484 60.6562L47.875 59.8359ZM46.1641 64.0781L46.0469 63.1641L46.2812 63.7734L46.1641 64.0781ZM45.7188 64.5234L45.4375 63.5391L45.8828 64.2656L45.7188 64.5234ZM45.0391 64.3828L44.6172 63.5859L45.3203 64.3828L45.1797 64.6875L44.9922 65.1328L44.8984 64.8516L45.0391 64.3828ZM44.2188 64.4766H44.2656L44.5469 64.8047L44.2656 65.1328L44.2188 64.4766ZM58.2578 69.3984L58.9844 70.0078L59.0312 70.2422L58.3281 69.6328L58.2578 69.3984ZM65.2656 53.2266L68.9453 38.8125L73.4453 38.7891L69.0625 54.1875L65.2656 53.2266ZM71.6172 46.1719L71.5469 45.8203L71.2891 46.3594L71.6172 46.1719ZM69.8828 72.2109L64.9609 57.4219L68.9922 54.2344L74.6875 72.0938L69.8828 72.2109ZM67.9141 65.2734L67.9844 64.9219L67.6562 64.7344L67.9141 65.2734ZM66.2031 58.125L66.1094 53.1328L66.7422 53.5781L66.5547 53.8125L66.6016 53.8828L66.8125 53.6016L69.2969 53.5547L67.1406 56.1562L66.8359 55.7109L66.8828 55.4766L66.7656 55.6406L66.3438 55.1484L67.0703 56.1562L66.7656 56.3203L66.2969 56.4375L66.0859 56.4844L66.2031 56.3203L66.4844 56.2266H66.1328L66.0859 56.2969L66.0625 56.625L66.2031 58.125ZM71.8047 42.2812L71.6875 42.1172L71.7344 42.375L71.9688 42.5156L71.8047 42.2812ZM72.3438 42.6094L72.0625 42.4219L72.2266 42.7734L72.3438 42.6094ZM72.2266 43.3594L72.0859 43.4062L71.9922 43.6641L72.2734 43.8047L72.2266 43.3594ZM70.1875 39.3516L70.0938 39.2109L70.0234 39.3516H70.1875ZM69.5547 39.9375L69.4141 40.0312L69.5078 40.1719L69.5547 39.9375ZM72.0859 45.2344H71.8516L72.0391 45.5156L72.0859 45.2344ZM69.4375 47.2969L69.625 47.0625L69.1094 47.4375L69.4375 47.2969ZM68.9219 53.4375L69.4141 53.0391L68.875 53.3438L68.9219 53.4375ZM69.2031 51.3047L69.1562 51.2109L68.8516 51.5156L69.2031 51.3047ZM70.6797 50.0391H70.3984L70.2344 50.4844L70.6797 50.0391ZM68.1953 49.9453L68.5703 49.7109L67.75 50.1328L68.1953 49.9453ZM66.9531 57.5156L66.8828 57.8438L67.0938 57.6797L66.9531 57.5156ZM63.1328 70.9922L64.3281 71.9766L63.4141 71.9062L63.2031 71.625L63.1328 70.9922ZM61.8672 71.9766H61.375V69.8672L61.8672 69.9375L61.4453 69.375L61.5156 66.8438H61.7969L61.4453 65.9297V59.5312L61.7969 59.6719L62.0781 60.0938L62.3594 60.3047L61.7969 61.0078L62.2891 61.1484L62.7109 60.3047L62.4297 59.8828L62.6406 59.8125L61.8672 59.3906L62.2188 58.8984L62.9922 59.3203L63.3438 59.4609L63.625 59.3906L63.4141 59.0391L63.9062 58.6875L62.7812 58.7578L62.5 58.1953L61.8672 58.6875L62.0078 58.1953L62.8516 57.8438L62.4297 57.4922L61.4453 55.875V53.8594L62.2188 52.875L63.7656 53.1562L62.5 52.6641L63.4141 50.9766L61.5156 53.4375L61.375 39.1641H62.4297L63.2031 39.5156L63.625 40.0078L63.4141 39.375L63.9766 39.2344L63.2734 39.1641L62.8516 38.8828H61.4453V38.6016L63.0625 38.5312L63.4141 38.6719L63.8359 38.6016L64.1875 38.8828L64.5391 38.6719L64.8906 38.8828L65.1016 38.6016L66.1562 38.6719L65.4531 38.9531L65.0312 39.4453L65.2422 39.7266L65.6641 39.5156L66.2266 39.375V39.5859L65.7344 39.8672V40.0781L66.1562 39.9375L66.2266 43.1016L65.875 43.3125L66.1562 43.3828L66.2266 58.9688L64.9609 56.7891L66.1562 59.6016V62.625H65.1719L64.8906 62.7656L65.4531 63.1875L66.0156 63.3281V63.8906L65.9453 64.3828V64.875L66.0859 65.0156L64.6094 66.3516L63.7656 66.2812L63.4141 66.7734L63.4844 66.9844L63.9062 66.8438L63.4844 67.4062L64.3984 66.8438L66.0156 65.2969L66.0859 66.2812L65.875 66.4219L65.9453 66.7031L66.1562 67.125L66.2266 68.6016L65.875 68.7422V68.9531L66.2266 69.0938L66.0859 70.5L65.2422 69.9375L66.2266 71.4141L65.0312 70.5703L65.7344 72.1172L64.3984 70.4297L63.2031 68.25L64.1172 70.5703L63.2031 69.2344L63.4141 70.5L64.4688 71.5547L63.2734 70.9219L62.5 70.2188L62.1484 70.3594L62.6406 71.1328L61.8672 71.5547V71.9766ZM62.9219 41.0625L63.9766 41.1328L63.7656 40.9219L62.9922 40.7812L62.9219 41.0625ZM62.8516 41.4844L62.9922 41.7656H63.4141L62.8516 41.4844ZM62.4297 41.6953L62.1484 42.1172L62.4297 42.2578V41.6953ZM63.5547 54.7031L63.9062 54.9141L63.9766 54.7734L63.5547 54.7031ZM62.9922 55.9453V56.0859L63.9766 56.0156L62.9922 55.9453ZM64.3281 64.1016L64.2578 64.3125L65.3828 64.7344L64.3281 64.1016ZM64.1875 68.1094L63.9766 68.4609L64.2578 68.8828L64.6797 69.0234L64.1875 68.1094ZM68.9453 67.5469L70.1641 67.4297L72.1562 66.1172L69.9297 67.4062L68.9453 67.5469ZM72.1094 66.8906L72.1328 66.5156L71.8281 66.8672L72.1094 66.8906ZM71.3125 67.4766L71.2422 67.8047L71.5469 67.7344L71.3125 67.4766ZM73.2344 71.1328L74.3125 71.7891L73.2578 71.0156L72.6953 70.2891L73.2344 71.1328ZM72.7422 68.3438L72.6016 68.7656L72.8359 68.6953L72.7422 68.3438ZM69.7422 69.2344L69.8359 69.75L70.2344 69.9844L69.7422 69.2344ZM68.7344 55.1953L68.5703 55.4062L68.8281 55.5703L68.7344 55.1953ZM71.8281 40.0312L71.7109 39.7734L71.5234 40.1953L71.8281 40.0312ZM76.1875 39.7969V38.3203L80.9453 38.3906L81.25 38.7188V44.5547L76.1875 39.7969ZM84.4609 47.5781V43.8984L84.625 43.8281L84.3906 43.4531L84.4141 38.3906L89.125 38.4844L89.4766 39.0234L89.4297 43.1719V44.2734V47.5312L88.7969 47.3438L89.3125 47.8594L89.2422 48.1172L88.8203 48.5156L89.4297 48.4453L89.4062 49.0547L88.8203 49.3828L89.4766 49.3359V49.6641L89.0312 50.2266L89.4766 50.5547L89.5234 51.0938L89.4297 52.1016L84.4609 47.5781ZM76.2109 40.2422L81.2031 44.7188L81.1562 48.3984L81.0391 48.7734L81.1094 49.0078L81.1562 49.5469L81.0391 49.7812L81.1562 50.8359H84.5078V47.8594L89.4062 52.3125V54.6797L89.2422 55.2891L89.4297 55.8984L89.4766 62.3203L89.3125 62.625L89.3594 63.5391L89.4766 63.7266L89.2422 63.9844L89.4766 64.1953L89.4062 65.0859L89.2656 65.3203L88.6328 65.9062L89.4766 65.4609V67.0078L89.2656 67.4062V69.8672L89.4766 70.4766L89.5234 72.0938L89.0312 72.0234L88.6328 71.4375L88.7969 72.0234H85.9609L84.4609 70.2656L84.5781 69.2344L84.5547 64.3828L84.625 64.2188L84.4609 63.8672L84.5547 57.75L84.5781 57.4922L84.5078 57.1641L84.4609 55.8984H84.0859L83.6406 55.5703L83.4531 55.6172L83.3594 55.9453H81.3203L81.2734 60.5156L80.9219 60.75L81.25 61.0781L81.2734 67.6875L80.2656 66.7969L80.7812 67.6172L81.3203 68.2266L81.3672 72.0234H76.1875L76.2109 68.7891L76.3047 60.75L76.6797 60.1172L76.2109 60.4688V55.7344L76.3047 54.8906L76.1406 54.2812L76.3516 53.25L76.2109 52.6406V50.9766L76.3516 50.5547L76.2109 50.0391L76.2578 45.4688L76.375 45.1406L76.1875 44.8828L76.2109 40.2422ZM84.4609 70.9219L85.4922 72.1406L84.5547 72.0938L84.4609 70.9219ZM78.8828 65.9766L79.1641 65.9297L77.8047 64.3594L78.8828 65.9766ZM77.2422 69.9375L77.7812 70.7578L77.5234 71.2031L77.6406 71.8125L77.7812 71.25L78.1328 71.1562L78.1094 70.8281L77.5703 69.7734L76.5859 68.7656L77.2422 69.9375ZM77.0312 62.2734V62.7891L77.4062 62.7656L77.4531 62.4375L77.0312 62.2734ZM77.0312 60.7266L76.8438 61.125L77.0781 61.2188L77.2891 60.8906L77.0781 60.7266H77.0312ZM77.5703 60.1875L77.5234 60.5859H77.8984V60.1406L77.5703 60.1875ZM77.3125 58.9688L77.0781 59.4141L77.5703 59.1562L77.3125 58.9688ZM78.1094 58.2188V58.1484L79.5625 57.8672L79.0469 57.9141L78.0156 58.1016L78.1094 58.2188ZM81.2031 55.3359V55.6172L81.4375 55.5469L81.2031 55.3359ZM81.7656 54.8438L82.2109 55.1719L82.1875 54.6797L81.7656 54.8438ZM82.375 54.8438L82.4219 55.2422L83.0312 55.125L82.9141 54.7969L82.375 54.8438ZM83.1484 54.6094L83.4531 54.8906L83.6172 54.75L83.5703 54.5156L83.1484 54.6094ZM83.8047 54.5156L84.2969 55.0547L84.3438 54.4688L83.8047 54.5156ZM83.8516 53.8594L83.9688 54.1406L84.5547 54.3984L83.8516 53.8594ZM85.8438 47.4141L85.9375 47.8359L86.0547 47.4609L85.8438 47.4141ZM85.8438 41.25L85.9375 41.6719L86.2656 41.4609L85.8438 41.25ZM86.3359 43.5L86.3828 43.8984L86.5938 43.5938L86.2891 43.5469L86.3359 43.5Z" fill="white"/>
</svg>
