<svg width="28" height="23" viewBox="0 0 28 23" fill="none" xmlns="http://www.w3.org/2000/svg">
<path fill-rule="evenodd" clip-rule="evenodd" d="M2.41569 9.93759C9.69763 6.74445 14.5652 4.68059 16.9796 3.66812C23.911 0.786504 25.3518 0.280273 26.2864 0.280273C26.4811 0.280273 26.9484 0.319215 27.2599 0.552859C27.4936 0.747563 27.5715 1.02015 27.6104 1.21485C27.6493 1.40956 27.6883 1.83791 27.6493 2.18837C27.2599 6.12139 25.6634 15.7398 24.8067 20.1401C24.4562 22.0092 23.7553 22.6323 23.0933 22.7102C21.6525 22.827 20.5232 21.7367 19.1213 20.841C16.9406 19.4002 15.6945 18.5046 13.5528 17.1027C11.0995 15.4672 12.6961 14.5715 14.0979 13.1307C14.4484 12.7413 20.8736 6.93915 20.9905 6.39398C20.9905 6.3161 21.0294 6.08245 20.8736 5.96563C20.7179 5.84881 20.5232 5.88775 20.3674 5.92669C20.1338 5.96563 16.6291 8.30208 9.81445 12.8971C8.80199 13.598 7.90635 13.9096 7.08859 13.9096C6.19295 13.9096 4.47956 13.4033 3.19451 12.975C1.63688 12.4687 0.390772 12.1962 0.507595 11.3395C0.624417 10.8722 1.24747 10.4049 2.41569 9.93759Z" fill="white"/>
</svg>
