<svg width="31" height="19" viewBox="0 0 31 19" fill="none" xmlns="http://www.w3.org/2000/svg">
<path fill-rule="evenodd" clip-rule="evenodd" d="M4.90728 0.59375H1.62528C0.687556 0.59375 0.5 1.03513 0.5 1.52169C0.5 2.39084 1.61268 6.70137 5.68081 12.4024C8.3929 16.2957 12.214 18.4062 15.6911 18.4062C17.7773 18.4062 18.0354 17.9375 18.0354 17.1301V14.1875C18.0354 13.25 18.233 13.0629 18.8936 13.0629C19.3804 13.0629 20.2149 13.3062 22.1621 15.1834C24.3874 17.4082 24.7542 18.4062 26.0059 18.4062H29.2879C30.2257 18.4062 30.6945 17.9375 30.424 17.0125C30.1281 16.0905 29.0656 14.7528 27.6558 13.1672C26.8908 12.2634 25.7434 11.2901 25.3957 10.8033C24.9089 10.1776 25.048 9.89946 25.3957 9.34334C25.3957 9.34334 29.3943 3.71178 29.8116 1.79994C30.0202 1.10459 29.8116 0.59375 28.819 0.59375H25.537C24.7026 0.59375 24.3178 1.03513 24.1091 1.52169C24.1091 1.52169 22.4402 5.58893 20.0758 8.2309C19.3108 8.99562 18.9631 9.23899 18.5458 9.23899C18.3372 9.23899 18.0353 8.99562 18.0353 8.30046V1.79994C18.0353 0.965562 17.7931 0.59375 17.0976 0.59375H11.9401C11.4187 0.59375 11.105 0.980937 11.105 1.34797C11.105 2.13884 12.2872 2.32128 12.4091 4.54606V9.37812C12.4091 10.4375 12.2176 10.6296 11.8004 10.6296C10.6878 10.6296 7.98134 6.54415 6.37615 1.86941C6.06162 0.960782 5.74606 0.59375 4.90728 0.59375Z" fill="white"/>
</svg>
