<svg width="36" height="35" viewBox="0 0 36 35" fill="none" xmlns="http://www.w3.org/2000/svg">
<path d="M18.0728 0C8.55277 0 0.803692 7.77981 0.799654 17.3419C0.798644 20.3984 1.59425 23.382 3.1057 26.0118L0.655273 35L9.81181 32.5882C12.3349 33.97 15.1751 34.6979 18.0657 34.6989H18.0728C27.5918 34.6989 35.3409 26.9181 35.3449 17.356C35.3469 12.722 33.5518 8.36476 30.2906 5.08719C27.0294 1.8086 22.693 0.00202757 18.0728 0ZM18.0728 31.7701H18.0667C15.4911 31.7701 12.9639 31.0736 10.7599 29.7607L10.2359 29.4485L4.80293 30.88L6.25279 25.5606L5.91152 25.0152C4.47479 22.72 3.71553 20.0669 3.71654 17.3439C3.71957 9.39578 10.1601 2.92985 18.0788 2.92985C21.9135 2.93086 25.518 4.43228 28.2279 7.15734C30.9388 9.88139 32.43 13.5037 32.429 17.355C32.426 25.3031 25.9854 31.7701 18.0728 31.7701ZM25.9471 20.9743C25.5159 20.7573 23.3937 19.709 22.9979 19.5641C22.6021 19.4191 22.3143 19.3471 22.0266 19.781C21.7388 20.2149 20.9119 21.1912 20.6605 21.4801C20.4091 21.7701 20.1567 21.8056 19.7256 21.5886C19.2945 21.3717 17.9032 20.9134 16.2554 19.4373C14.9721 18.2887 14.1059 16.8694 13.8545 16.4355C13.6031 16.0016 13.8272 15.7674 14.0443 15.5515C14.2381 15.3579 14.4754 15.0456 14.6915 14.7922C14.9075 14.5387 14.9792 14.3583 15.1226 14.0683C15.266 13.7794 15.1943 13.526 15.0862 13.309C14.9782 13.0921 14.1149 10.959 13.7555 10.0912C13.4052 9.24676 13.0498 9.3603 12.7842 9.34712C12.5328 9.33394 12.2451 9.33191 11.9573 9.33191C11.6696 9.33191 11.2021 9.44039 10.8063 9.87429C10.4105 10.3082 9.29588 11.3564 9.29588 13.4895C9.29588 15.6225 10.8427 17.6835 11.0577 17.9724C11.2738 18.2614 14.1008 22.6389 18.4302 24.5154C19.46 24.9615 20.2637 25.2281 20.8907 25.4278C21.9246 25.7573 22.8656 25.7107 23.6087 25.5991C24.4376 25.4745 26.1621 24.5509 26.5216 23.5381C26.881 22.5264 26.881 21.6586 26.773 21.4771C26.6649 21.2966 26.3772 21.1882 25.9461 20.9712L25.9471 20.9743Z" fill="white"/>
</svg>
